<?xml version="1.0" encoding="UTF-8" standalone="no"?>
<svg xmlns="http://www.w3.org/2000/svg" width="314" height="210" version="1.0">
<g transform="translate(-4.5-3.9)">
<path d="M 121.5,8.5C98.1,8.8 85.6,11.9 69.1,21.8C33.9,42.5 10.6,85.4 10.6,129.5C10.6,175.3 37.4,209.5 72.8,209.5C106.8,209.5 135,179.9 135,143.6C135,109.3 111.4,85.1 78.3,85.1C65.3,85.1 53.2,88.9 40.5,97.2C51.5,49.4 84.9,16.6 125,13.7L124.95,8.5C124.1,8.5 123.4,8.5 122.6,8.5C122.2,8.5 121.8,8.5 121.5,8.5zM244.6,61.8C223.8,62.1 209.2,64.7 196.7,70.1C168.7,82.8 152.9,105.3 152.9,132.1C152.9,150.8 160.1,169.8 173.3,184.8C188.3,202 204.7,209.5 227.5,209.5C247.1,209.5 263.8,203.5 277,191.7C290,179.9 297.7,163.5 297.7,147.9C297.7,126 281,104.4 250.5,86.9L313.6,86.9L313.6,61.8L248.2,61.8C247.5,61.8 246.8,61.8 246.1,61.8C245.6,61.8 245.1,61.8 244.6,61.8zM226.5,86.9C226.6,86.9 226.7,86.9 226.8,86.9C227.2,86.8 227.6,86.9 228,86.9L237,86.9C261.7,112.5 267.2,123.4 267.2,147C267.2,177 252.8,197.2 231.5,197.2C205,197.2 183.1,168.1 183.1,132.6C183.1,105.5 200.3,87.5 226.5,86.9zM68.3,99C68.4,98.9 68.6,99 68.7,99C69.1,98.9 69.5,99 69.9,99C84.3,99 94.1,105 100.8,118.8C106.5,130.3 109.7,144.4 109.7,158C109.7,183 97,199.2 77.4,199.2C52.1,199.2 36,173 36,131.8C36,124.6 36.5,115.6 37.4,111.3C37.7,110.2 37.7,110.2 37.7,109.3C51.3,101.7 58.7,99.2 68.3,99z"/>
</g>
</svg>
